<svg class="plot-roci" fill="currentColor" font-family="system-ui, sans-serif" font-size="10" text-anchor="middle" width="500" height="170" viewBox="0 -30 500 170" style="background: none;" xmlns="http://www.w3.org/2000/svg" xmlns:xlink="http://www.w3.org/1999/xlink"><style>.plot-roci {
  display: block;
  background: white;
  height: auto;
  height: intrinsic;
  max-width: 100%;
}
.plot-roci text,
.plot-roci tspan {
  white-space: pre;
}
@media (prefers-color-scheme: dark) {
  :root {
    color: #ffffff;
  }
}</style><g><text x="0" y="-16" font-size="16" font-weight="700" text-anchor="start" aria-label="title">Jitters On The Rocinante</text><text x="0" y="0" font-size="12" text-anchor="start" aria-label="subtitle">How is it possible there is so much coffee in space in The Expanse universe?</text></g><g aria-label="y-axis tick label" text-anchor="end" transform="translate(-9,11)"><text y="0.32em" transform="translate(50,12)">Holden</text><text y="0.32em" transform="translate(50,36)">Amos</text><text y="0.32em" transform="translate(50,60)">Alex</text><text y="0.32em" transform="translate(50,84)">Naomi</text></g><g aria-label="x-grid" stroke="currentColor" stroke-opacity="0.1"><line x1="50" x2="50" y1="8" y2="110"></line><line x1="121.66666666666667" x2="121.66666666666667" y1="8" y2="110"></line><line x1="193.33333333333334" x2="193.33333333333334" y1="8" y2="110"></line><line x1="265" x2="265" y1="8" y2="110"></line><line x1="336.6666666666667" x2="336.6666666666667" y1="8" y2="110"></line><line x1="408.3333333333333" x2="408.3333333333333" y1="8" y2="110"></line><line x1="480" x2="480" y1="8" y2="110"></line></g><g aria-label="x-axis tick label" font-variant="tabular-nums" transform="translate(0,9)"><text y="0.71em" transform="translate(50,110)">0</text><text y="0.71em" transform="translate(121.66666666666667,110)">5</text><text y="0.71em" transform="translate(193.33333333333334,110)">10</text><text y="0.71em" transform="translate(265,110)">15</text><text y="0.71em" transform="translate(336.6666666666667,110)">20</text><text y="0.71em" transform="translate(408.3333333333333,110)">25</text><text y="0.71em" transform="translate(480,110)">30</text></g><g aria-label="x-axis label" text-anchor="end" transform="translate(17,27)"><text transform="translate(480,110)">Cups of coffee consumed, per-day</text></g><g aria-label="bar" fill="steelblue"><rect x="50" width="430" y="12" height="22"></rect><rect x="50" width="71.66666666666667" y="36" height="22"></rect><rect x="50" width="43" y="60" height="22"></rect><rect x="50" width="14.333333333333343" y="84" height="22"></rect></g></svg>
